<?xml version="1.0" encoding="utf-8"?>
<!-- Generator: Adobe Illustrator 27.1.1, SVG Export Plug-In . SVG Version: 6.00 Build 0)  -->
<svg version="1.1"
	 id="レイヤー_1" xmlns:rdf="http://www.w3.org/1999/02/22-rdf-syntax-ns#" xmlns:inkscape="http://www.inkscape.org/namespaces/inkscape" xmlns:svg="http://www.w3.org/2000/svg" xmlns:sodipodi="http://sodipodi.sourceforge.net/DTD/sodipodi-0.dtd" xmlns:cc="http://creativecommons.org/ns#" xmlns:dc="http://purl.org/dc/elements/1.1/" inkscape:version="0.92.2 (5c3e80d, 2017-08-06)"
	 xmlns="http://www.w3.org/2000/svg" xmlns:xlink="http://www.w3.org/1999/xlink" x="0px" y="0px" viewBox="0 0 163.6 126"
	 style="enable-background:new 0 0 163.6 126;" xml:space="preserve">
<style type="text/css">
	.st0{fill:#FFFFFF;}
</style>
<sodipodi:namedview  bordercolor="#666666" borderopacity="1" gridtolerance="10" guidetolerance="10" id="namedview100" inkscape:current-layer="g65" inkscape:cx="754.02155" inkscape:cy="-216.41834" inkscape:pageopacity="0" inkscape:pageshadow="2" inkscape:window-height="837" inkscape:window-maximized="1" inkscape:window-width="1600" inkscape:window-x="-8" inkscape:window-y="-8" inkscape:zoom="0.64835165" objecttolerance="10" pagecolor="#ffffff" showgrid="false">
	</sodipodi:namedview>
<g id="g97">
	<g id="g65">
		
			<g id="g39" inkscape:export-filename="C:\Users\suitedoalex\sites\jcb-logo-1.png" inkscape:export-xdpi="1232.2738" inkscape:export-ydpi="1232.2738">
			<path id="path15" class="st0" d="M118.6,74.8h10.5c0.3,0,1-0.1,1.3-0.1c2-0.4,3.7-2.2,3.7-4.7c0-2.4-1.7-4.2-3.7-4.7
				c-0.3-0.1-0.9-0.1-1.3-0.1h-10.5V74.8z"/>
			<path id="path26" class="st0" d="M127.9,8.5c-10,0-18.2,8.1-18.2,18.2v18.9h25.7c0.6,0,1.3,0,1.8,0.1c5.8,0.3,10.1,3.3,10.1,8.5
				c0,4.1-2.9,7.6-8.3,8.3v0.2c5.9,0.4,10.4,3.7,10.4,8.8c0,5.5-5,9.1-11.6,9.1h-28.2v37h26.7c10,0,18.2-8.1,18.2-18.2V8.5H127.9z"
				/>
			<path id="path37" class="st0" d="M132.8,55.4c0-2.4-1.7-4-3.7-4.3c-0.2,0-0.7-0.1-1-0.1h-9.5v8.8h9.5c0.3,0,0.9,0,1-0.1
				C131.1,59.4,132.8,57.8,132.8,55.4z"/>
		</g>
		
			<path id="path50" inkscape:export-filename="C:\Users\suitedoalex\sites\jcb-logo-1.png" inkscape:export-xdpi="1232.2738" inkscape:export-ydpi="1232.2738" class="st0" d="
			M27.3,8.5c-10,0-18.2,8.1-18.2,18.2v44.9c5.1,2.5,10.4,4.1,15.7,4.1c6.3,0,9.7-3.8,9.7-9V45.5h15.6v21.1c0,8.2-5.1,14.9-22.4,14.9
			C17.2,81.5,9,79.2,9,79.2v38.3h26.7c10,0,18.2-8.1,18.2-18.2V8.5H27.3z"/>
		
			<path id="path63" inkscape:export-filename="C:\Users\suitedoalex\sites\jcb-logo-1.png" inkscape:export-xdpi="1232.2738" inkscape:export-ydpi="1232.2738" class="st0" d="
			M77.6,8.5c-10,0-18.2,8.1-18.2,18.2v23.8c4.6-3.9,12.6-6.4,25.5-5.8c6.9,0.3,14.3,2.2,14.3,2.2v7.7c-3.7-1.9-8.1-3.6-13.8-4
			c-9.8-0.7-15.7,4.1-15.7,12.5c0,8.5,5.9,13.3,15.7,12.5c5.7-0.4,10.1-2.2,13.8-4v7.7c0,0-7.3,1.9-14.3,2.2
			C72,82.1,64,79.6,59.4,75.7v42h26.7c10,0,18.2-8.1,18.2-18.2v-91H77.6z"/>
	</g>
</g>
</svg>
