<?xml version="1.0" encoding="utf-8"?>
<!-- Generator: Adobe Illustrator 27.1.1, SVG Export Plug-In . SVG Version: 6.00 Build 0)  -->
<svg version="1.1" id="Layer_1" xmlns="http://www.w3.org/2000/svg" xmlns:xlink="http://www.w3.org/1999/xlink" x="0px" y="0px"
	 viewBox="0 0 699.6 443.5" style="enable-background:new 0 0 699.6 443.5;" xml:space="preserve">
<style type="text/css">
	.st0{fill:#FFFFFF;}
</style>
<g id="XMLID_00000036971760689977329850000001462037928345731973_">
	<g>
		<path class="st0" d="M615.3,224.8c0.1,33-19.1,47.4-45.6,47.4c-26.2,0-36.8-16.3-36.8-36.1c0-27.8,17.9-46.6,45.6-46.6
			C602.6,189.5,615.3,205,615.3,224.8z M590.3,224.3c0-8.1-3.3-15.8-12.8-15.8c-11.8,0-19.1,14.2-19.1,26.8c0,10.6,5,17.7,13.3,17.6
			C583.1,252.9,590.3,242.3,590.3,224.3z"/>
		<path class="st0" d="M536.5,192c0,0-7.6,20-8.5,22.5c-17.7-4.8-20.5,8.8-29,56.4h-23.5l1-5.4c4.1-24.6,9.3-49.6,12.3-74.2h21.8
			c0.3,3.7-0.9,7.8-1.6,12.1C516.2,194,524.2,187.4,536.5,192z"/>
		<path class="st0" d="M473.6,191.4l-3.2,19.4h-12c0,0-6.6,33.7-6.6,36.3c0,4.1,2.4,5.9,8,5.9c2.7,0,4.7-0.2,6.3-0.8l-3.1,17.6
			c-6.4,1.8-11.4,2.5-16.8,2.5c-12,0-18.5-6.2-18.5-17.4c-0.4-3,2.6-17.1,3.2-21.1c0.6-4,11.1-61.4,11.1-61.4h23.3l-3.6,19H473.6z"
			/>
		<path class="st0" d="M482.4,0c119.8,0,217.2,99.5,217.2,221.8c0,122.2-97.4,221.7-217.2,221.7c-49.9,0-96-17.3-132.7-46.3
			c-36.7,29.1-82.8,46.3-132.7,46.3C97.2,443.5-0.2,344-0.2,221.7S97.2,0,217,0c50,0,96,17.3,132.7,46.3C386.4,17.3,432.5,0,482.4,0
			z M482.5,423.7c109.2,0,197.8-90.4,197.8-201.9c-0.1-111.6-88.7-201.9-197.9-201.9c-44.1,0-84.7,14.7-117.6,39.6
			c32.1,30.5,55.1,70.8,64.6,116.1h-19.9c-9.3-40.6-30.6-76.4-59.8-103.4c-29.2,27-50.5,62.9-59.8,103.4H270
			c9.4-45.3,32.5-85.6,64.6-116.1C301.7,34.6,261,19.9,217,19.9c-109.2,0-197.7,90.4-197.7,201.9S107.8,423.7,217,423.7
			c44.1,0,84.8-14.7,117.6-39.6c-28-26.7-49.2-60.8-60.4-99.3h20.4c10.8,33.7,30.1,63.4,55.2,86.6c25.1-23.2,44.4-53,55.2-86.6h20.3
			c-11.2,38.5-32.3,72.6-60.4,99.3C397.8,409,438.5,423.7,482.5,423.7z"/>
		<path class="st0" d="M423.4,191.2l-3.5,18.4c-6.1-0.8-12.5-1.2-17.1-1.2c-7.7,0-11.7,2.2-11.7,6.5c0,3.7,1.1,4.6,11.1,8.6
			c12,4.8,16.8,11.2,16.8,22.1c0,18.2-11.6,26.6-36.7,26.6c-8.5-0.2-18-0.7-24.8-2.3l3.4-18.3c7.6,2.2,14.1,3.1,21.2,3.1
			c9.5,0,13.7-2.2,13.7-7.2c0-3.6-1.5-4.8-11.1-8.8c-12.6-5.1-18.1-12.1-18.1-22.1c-0.1-14.7,9.1-26.9,35.8-26.9
			C407.8,189.7,417.2,190.4,423.4,191.2z"/>
		<path class="st0" d="M354.5,218.4c-0.1,5.7-0.9,11.4-3,19.5H305c-1.7,11.4,6.5,16.4,20.3,16.4c8.3,0,15.8-1.5,24.1-4.9l-3.6,19.8
			c-8,2.1-15.8,3.1-24,3.1c-26.2,0-39.8-12.2-39.8-35.5c0-27.2,17.4-47.2,40.9-47.2C342.2,189.6,354.5,200.8,354.5,218.4z
			 M333.2,221.9c0-1.8,2.6-13.9-10.9-14.2c-7.4,0-12.8,5.1-14.9,14.2H333.2z"/>
		<path class="st0" d="M275,212.9c0.2,4-1.2,12.1-1.8,15.7c-0.8,5.2-6.4,35.2-7,42.4h-19.6l0.5-8.4c-6,6.6-13.9,9.7-24.7,9.7
			c-12.7,0-21.5-8.9-21.5-21.7c0-19.4,15.2-30.7,41.3-30.7c2.7,0,6.1,0.2,9.6,0.6c0.7-2.6,0.9-3.7,0.9-5.1c0-5.3-4.1-7.3-15.1-7.3
			c-10.8,0-18.1,1.7-24.9,3.5l3.3-17.8c11.7-3,19.4-4.2,28.1-4.2C264.3,189.6,275,197.7,275,212.9z M249,235.5
			c-2.5-0.3-3.6-0.4-5.3-0.4c-13.3,0-20.1,4-20.1,12c0,5.1,3.3,8.2,8.4,8.2C241.7,255.3,248.6,247.1,249,235.5z"/>
		<polygon class="st0" points="204.2,173.6 185.8,270.9 162.5,270.9 176.4,196.1 144.4,270.9 123.1,270.9 119.2,196.6 105.3,270.9 
			84.1,270.9 102.2,173.6 138.6,173.6 140.5,233.8 166.2,173.6 		"/>
	</g>
	<g>
	</g>
</g>
</svg>
