<?xml version="1.0" encoding="utf-8"?>
<!-- Generator: Adobe Illustrator 27.1.1, SVG Export Plug-In . SVG Version: 6.00 Build 0)  -->
<svg version="1.1" id="Layer_1" xmlns="http://www.w3.org/2000/svg" xmlns:xlink="http://www.w3.org/1999/xlink" x="0px" y="0px"
	 viewBox="0 0 2500 1462" style="enable-background:new 0 0 2500 1462;" xml:space="preserve">
<style type="text/css">
	.st0{fill-rule:evenodd;clip-rule:evenodd;fill:#FFFFFF;}
	.st1{fill:#FFFFFF;}
</style>
<g>
	<path class="st0" d="M2432.1,1025.4c14,0,25,11,25,25.6c0,14.9-11,25.8-25,25.8c-14.1,0-25.1-10.9-25.1-25.8
		C2406.9,1036.5,2417.9,1025.4,2432.1,1025.4v-5.1c-17,0-31.4,13.1-31.4,30.8c0,17.9,14.4,31,31.4,31c16.8,0,31.2-13.1,31.2-31
		c0-17.7-14.4-30.8-31.2-30.8V1025.4z"/>
	<g>
		<path class="st1" d="M2437,1053.3c5.2-0.7,9.2-3.4,9.2-9.8c0-7-4.2-10.1-12.6-10.1h-13.6v35.6h5.4v-15.4h0v-4.6h0v-11h0v0h7.3
			c3.7,0,7.8,0.8,7.8,5.2c0,5.5-4.1,5.8-8.7,5.8h-6.4v4.6h6.2l9.4,15.4h6.1L2437,1053.3z"/>
		<path class="st1" d="M1700.5,0c-170.1-0.3-335,59.1-465.9,167.8C1108,62.5,944.9,0,767.4,0C363.9,0,36.8,327.1,36.8,730.6
			s327.1,730.6,730.6,730.6c177.5,0,340.7-62.5,467.2-167.8c130.9,108.7,295.8,168.1,465.9,167.8c403.5,0,730.6-327.1,730.6-730.6
			C2431.1,327.1,2104,0,1700.5,0z M1700.5,1407.5c-162.3,0-309.8-56.8-426.4-151.9c88.9-85.8,156.8-193.4,193.2-314.9h-56.2
			c-35.2,108-97.2,203.4-177.6,279.8c-81-77.1-141.7-173.2-176.5-279.5h-56.3c35.9,119.3,101.8,227.4,191.3,314.1
			c-116.3,94.2-263.2,152.4-424.5,152.4c-373.9,0-676.9-303.1-676.9-676.9s303.1-677,676.9-677c161.3,0,308.2,58.2,424.5,152.4
			c-89.5,86.7-155.3,194.8-191.3,314.1l56.3,0c34.8-106.3,95.5-202.4,176.5-279.5c80.5,76.5,142.4,171.8,177.6,279.9h56.2
			c-36.4-121.5-104.3-229-193.2-314.9c116.6-95.2,264.2-151.9,426.4-151.9c373.9,0,677,303.1,677,677v0
			C2377.5,1104.5,2074.4,1407.6,1700.5,1407.5z"/>
	</g>
	<g>
		<path class="st1" d="M1175.9,637.9c-110,0-124,109.2-126.6,124.9c-2.6,15.7-4.4,126.6,113.5,126.6c28.8,0.9,70.7-2.6,87.3-11.3
			l10.5-51.5c-10.5,2.6-49.8,6.1-76.8,6.1c-27.1,0-70.7,1.8-62.9-55h148.5C1277.2,737.5,1295.5,637.9,1175.9,637.9z M1128.4,719.6
			c-0.1,0.3-0.2,0.7-0.3,1.2C1128.2,720.3,1128.3,719.9,1128.4,719.6z M1127.2,724.4c-0.2,0.7-0.4,1.5-0.6,2.4
			C1126.8,726,1127,725.2,1127.2,724.4z M1125.9,729.8c-0.1,0.2-0.1,0.4-0.2,0.6c-0.1,0.2-0.1,0.4-0.2,0.6c0,0,0,0,0,0
			c-0.1,0.4-0.2,0.8-0.2,1c0,0.1,0,0.1,0,0.2c0,0,0-0.1,0-0.2c0.1-0.3,0.2-0.7,0.2-1c0,0,0,0,0,0c0.1-0.2,0.1-0.4,0.2-0.6
			C1125.8,730.2,1125.8,730,1125.9,729.8z M1209.9,732.2h-84.7h0c7.9-31.4,27.1-45.4,54.1-45.4
			C1206.5,686.8,1214.3,707.8,1209.9,732.2z"/>
		<path class="st1" d="M998.6,796.9l19.2-101.3h34.9l12.2-54.1h-36.7l14-66.4h-68.1L927,812.6c-13.1,68.1,38.4,77.7,54.1,77.7
			c15.7,0,35.8-2.6,50.6-12.2l4.4-50.6C996.9,833.5,995.1,816.1,998.6,796.9z"/>
		<path class="st1" d="M1992,663.4l-6.2-24.7h-59.1L1880,889.2h0h68.8l21.2-114.7c20.3-75,52-70.6,68.8-70.6l18.5-65.3
			C2022.9,638.7,2002.5,651,1992,663.4z"/>
	</g>
	<g>
		<path class="st1" d="M554.8,643.4c0.6-0.1,1.2-0.2,1.8-0.3C556,643.2,555.4,643.3,554.8,643.4z"/>
		<path class="st1" d="M561.1,642.2c0.4-0.1,0.8-0.2,1.1-0.2C561.9,642,561.5,642.1,561.1,642.2z"/>
		<path class="st1" d="M556.6,643.1c0.6-0.1,1.2-0.2,1.7-0.3C557.8,642.9,557.2,643,556.6,643.1z"/>
		<path class="st1" d="M559.2,642.6c0.7-0.1,1.4-0.3,1.9-0.4C560.6,642.3,559.9,642.4,559.2,642.6z"/>
		<path class="st1" d="M562.5,641.9C562.7,641.9,562.6,641.9,562.5,641.9L562.5,641.9z"/>
		<path class="st1" d="M550.9,644.2c0.8-0.2,1.6-0.3,2.4-0.5C552.4,643.9,551.6,644.1,550.9,644.2z"/>
		<path class="st1" d="M890.3,757.6c-13.1-8.7-34.9-20.9-48.9-27.1c-14-6.1-24.4-29.7,0.9-36.7c15.7-1.8,48-1.8,67.2,3.5
			c0,0-0.1,0-0.1,0c0,0,0.1,0,0.1,0l15.7-50.6C893,634.4,867.7,637,858,637c-9.6,0-91.4-1-103.9,59.4c-9.6,46.3,7.3,65.4,23.6,72.5
			c26.2,11.3,41.1,21.8,55,28.8c17.3,8.6,14.1,37.5-8.7,37.5c-10.5,0-55.9,5.2-89.9-6.1l-9.6,51.5c31.4,8.7,56.7,8.7,80.3,8.7
			c16.6,0,97.8,4.4,109.1-70.7C919.5,782.1,903.4,765.4,890.3,757.6z M906.7,696.5c-0.8-0.2-1.5-0.4-2.1-0.6
			C905.3,696.1,906,696.3,906.7,696.5z M902.8,695.4c-0.3-0.1-0.7-0.2-0.9-0.2c-0.2-0.1-0.4-0.1-0.6-0.2c0.1,0,0.3,0.1,0.6,0.2
			C902.1,695.3,902.4,695.4,902.8,695.4z"/>
		<path class="st1" d="M631.9,637c-20.9,0.9-44.5,0-89.1,8.8h0l-10.5,54.1c16.6-1.7,61.1-8.7,84.7-7.9c23.6,0.9,49.8-2.6,41.9,34.9
			c-17.5,1.8-139.7-17.5-158.9,87.3c-7.9,51.6,36.7,77.7,71.6,76c34.9-1.8,44.5-6.1,56.8-14.9l8.7,14h63.7l27.1-136.2
			C734.9,719.1,746.3,637,631.9,637z M642.4,804.7c-4.4,22.7-36.7,37.2-58.5,28.8c-22.7-8.7-16.6-34.9,5.2-49.8
			c21.8-14.9,47.2-7.9,58.5-6.1L642.4,804.7z"/>
		<path class="st1" d="M544.6,645.4c0.4-0.1,0.9-0.2,1.4-0.3C545.6,645.3,545.1,645.3,544.6,645.4z"/>
		<path class="st1" d="M542.8,645.8c0.1,0,0.2,0,0.2,0C542.9,645.8,542.8,645.8,542.8,645.8z"/>
		<polygon class="st1" points="412.7,587.3 329.7,770.7 316.7,587.3 207.5,587.3 149,889.4 217.1,889.4 259,671.1 277.4,889.4 
			342,889.4 437.2,676.3 397,889.4 467.7,889.4 467.7,889.4 524.5,587.3 		"/>
	</g>
	<g>
		<path class="st1" d="M1597.7,572.4c-47.1-1.7-127.9,32.7-153.7,126.6c-34.9,127.5,41.9,190.4,112.7,190.4c37.6,0,60.3-5.2,83-15.7
			l-20.1-61.1c-69.8,23.6-119.6-12.2-108.3-84.7c9.6-61.2,60.3-82.9,83-82.9s34.9,1.7,52.4,12.2l0,0l44.6-44.5
			C1673.6,593.4,1653.5,574.5,1597.7,572.4z"/>
		<path class="st1" d="M2245.6,571.6l-18.3,96h0c-13.1-9.6-21-29.7-53.3-29.7c-37.5,0-96.1-7-129.2,106.5
			c-22.2,75.9,22.7,145,71.6,145c22.7-0.9,45.4-10.5,59.4-20.1l8.8,20.1h73.3l59.4-317.8H2245.6z M2202.8,769.8
			c-12.2,30.6-27.9,50.6-53.3,50.6c-23.6,0-44.5-27.1-34.9-62.9c14.7-54.7,62.9-76.8,83.8-48.9
			C2206,718.7,2209.8,747.1,2202.8,769.8z"/>
	</g>
	<g>
		<path class="st1" d="M1697.3,645.4c0.4-0.1,0.8-0.2,1.2-0.2C1698.1,645.3,1697.6,645.4,1697.3,645.4z"/>
		<path class="st1" d="M1700.3,644.8c1-0.2,2.1-0.4,3.2-0.6C1702.5,644.4,1701.4,644.6,1700.3,644.8z"/>
		<path class="st1" d="M1698.5,645.2c0.5-0.1,1.1-0.2,1.8-0.3C1699.7,645,1699.1,645.1,1698.5,645.2z"/>
		<path class="st1" d="M1713.7,642.2c0.4-0.1,0.7-0.1,1-0.2C1714.4,642.1,1714.1,642.1,1713.7,642.2z"/>
		<path class="st1" d="M1711.7,642.6c0.8-0.2,1.4-0.3,1.9-0.4C1713.1,642.3,1712.5,642.4,1711.7,642.6z"/>
		<path class="st1" d="M1715.1,641.9C1715.3,641.9,1715.3,641.9,1715.1,641.9L1715.1,641.9z"/>
		<path class="st1" d="M1784.5,637c-20.9,0.9-44.5,0-89.1,8.8h0l-10.5,54.1c16.6-1.7,61.1-8.7,84.7-7.9c23.6,0.9,49.8-2.6,41.9,34.9
			c-17.5,1.8-139.7-17.5-158.9,87.3c-7.9,51.6,36.7,77.7,71.6,76c34.9-1.8,44.5-6.1,56.8-14.9l8.7,14h63.7l27.1-136.2
			C1887.6,719.1,1898.9,637,1784.5,637z M1795,804.7c-4.4,22.7-36.6,37.2-58.5,28.8c-22.7-8.7-16.6-34.9,5.2-49.8
			c21.8-14.9,47.2-7.9,58.5-6.1h0L1795,804.7z"/>
		<path class="st1" d="M1695.4,645.8c0.1,0,0.2,0,0.2,0C1695.5,645.8,1695.4,645.8,1695.4,645.8z"/>
		<path class="st1" d="M1703.5,644.2c0.7-0.1,1.4-0.3,2.2-0.4C1705,643.9,1704.3,644.1,1703.5,644.2z"/>
		<path class="st1" d="M1709.2,643.1c0.8-0.2,1.5-0.3,2.1-0.4C1710.7,642.8,1710,642.9,1709.2,643.1z"/>
		<path class="st1" d="M1705.7,643.8c0.6-0.1,1.2-0.2,1.8-0.4C1706.9,643.5,1706.3,643.7,1705.7,643.8z"/>
		<path class="st1" d="M1707.5,643.4c0.6-0.1,1.2-0.2,1.8-0.3C1708.7,643.2,1708.1,643.3,1707.5,643.4z"/>
	</g>
	<path class="st0" d="M1271.3,889.4l46.3-248h58.5l6.1,24.4c10.5-12.2,30.5-24.4,64.6-24.4l-17.5,65.5c-16.6,0-48.9-5.2-69,69
		l-20.9,113.5H1271.3z"/>
</g>
</svg>
