<?xml version="1.0" encoding="utf-8"?>
<!-- Generator: Adobe Illustrator 27.1.1, SVG Export Plug-In . SVG Version: 6.00 Build 0)  -->
<svg version="1.1" id="Layer_1" xmlns="http://www.w3.org/2000/svg" xmlns:xlink="http://www.w3.org/1999/xlink" x="0px" y="0px"
	 viewBox="0 0 923.1 298.1" style="enable-background:new 0 0 923.1 298.1;" xml:space="preserve">
<g>
	<defs>
		<path id="SVGID_1_" d="M477.4,95.3c-0.5,41.5,37,64.7,65.3,78.5c29,14.1,38.8,23.2,38.7,35.8c-0.2,19.3-23.2,27.9-44.7,28.2
			c-37.5,0.6-59.3-10.1-76.6-18.2l-13.5,63.2c17.4,8,49.6,15,82.9,15.3c78.3,0,129.6-38.7,129.9-98.6
			c0.3-76.1-105.2-80.3-104.5-114.3c0.2-10.3,10.1-21.3,31.7-24.1c10.7-1.4,40.1-2.5,73.5,12.9l13.1-61.1C655.2,6.3,632.1,0,603.4,0
			C529.7,0,477.8,39.2,477.4,95.3 M799.2,5.3c-14.3,0-26.4,8.3-31.7,21.1L655.5,293.6h78.3l15.6-43h95.7l9,43h69L862.9,5.3H799.2
			 M810.1,83.2l22.6,108.3h-61.9L810.1,83.2 M382.5,5.3l-61.7,288.3h74.6L457,5.3H382.5 M272.1,5.3l-77.6,196.2L163.1,34.6
			C159.4,16,144.9,5.3,128.7,5.3H1.8L0,13.6c26.1,5.7,55.7,14.8,73.6,24.5c11,6,14.1,11.2,17.7,25.3l59.5,230.1h78.8L350.5,5.3
			L272.1,5.3"/>
	</defs>
	<use xlink:href="#SVGID_1_"  style="overflow:visible;fill:#FFFFFF;"/>
	<clipPath id="SVGID_00000145016276540261759220000007974428532273418913_">
		<use xlink:href="#SVGID_1_"  style="overflow:visible;"/>
	</clipPath>
</g>
</svg>
