<?xml version="1.0" encoding="utf-8"?>
<!-- Generator: Adobe Illustrator 27.1.1, SVG Export Plug-In . SVG Version: 6.00 Build 0)  -->
<svg version="1.1" id="svg8195" xmlns="http://www.w3.org/2000/svg" xmlns:xlink="http://www.w3.org/1999/xlink" x="0px" y="0px"
	 viewBox="0 0 701.8 133.3" style="enable-background:new 0 0 701.8 133.3;" xml:space="preserve">
<style type="text/css">
	.st0{fill:#FFFFFF;}
</style>
<g id="layer1" transform="translate(79.6546 -150.1857)">
	<g id="g8241" transform="translate(-79.6477 150.1857) scale(.17764)">
		<path id="path8223" class="st0" d="M1109.8,586.2l-75.1-307.7l-85.8,307.7h-85.8l-109.6-336c-3.5-9.7-7.1-10.6-15.9-13.3
			l-32.7-7.1l9.7-42.4h156.5v42.4l-49.5,6.2l86.6,278.5L997.6,198h81.3l75.1,315.6l86.6-277.6l-50.4-6.2l8.8-42.4h146.8v42.4
			l-28.3,4.4c-13.3,2.7-15.9,5.3-19.5,15.9l-105.2,336h-83V586.2z"/>
		<path id="path8225" class="st0" d="M1653.6,385.5c0-101.7-37.1-146.8-112.3-146.8c-76,0-120.2,45.1-120.2,147.6
			c0,103.4,39.8,152.9,116.7,152.9C1612.9,539.3,1653.6,491.6,1653.6,385.5 M1347.7,385.5c0-122,61.9-206,194.5-206
			s183.9,84.9,183.9,200.7c0,130.8-59.2,214.8-191.8,214.8C1399.8,595.9,1347.7,508.4,1347.7,385.5"/>
		<path id="path8227" class="st0" d="M1763.2,586.2v-42.4l38.9-4.4c10.6-1.8,12.4-3.5,12.4-15.9V259c0-8.8-2.7-14.1-9.7-15.9
			l-44.2-15l7.1-41.6h101.7l8,53.9l2.7,0.9c25.6-29.2,63.7-61.9,116.7-61.9c17.7,0,41.6,3.5,55.7,7.1v117.6l-54.8-2.7l-9.7-53.9
			c-0.9-6.2-2.7-8-9.7-8c-35.4,0-74.3,31.8-92.8,48.6v233.4c0,12.4,0.9,15,12.4,15.9l71.6,6.2v41.6h-206L1763.2,586.2z"/>
		<path id="path8229" class="st0" d="M2074.4,586.2v-42.4l47.7-4.4c10.6-0.9,12.4-3.5,12.4-15.9v-451c0-8.8-2.7-14.1-9.7-15.9
			l-46.9-15L2085,0h120.2v523.4c0,12.4,0.9,14.1,12.4,15.9l46.9,5.3v41.6H2074.4z"/>
		<path id="path8231" class="st0" d="M2566,279.4c-23-19.5-65.4-41.6-106.1-41.6c-73.4,0-101.7,63.7-101.7,156.5
			c0,107.9,36.2,143.2,91.1,143.2c46,0,83.1-30.1,117.6-64.5V279.4H2566z M2579.2,586.2l-6.2-51.3l-3.5-0.9c-35.4,34.5-76,61-137,61
			c-88.4,0-146.8-57.5-146.8-200.7c0-152.9,69-215.7,162.7-215.7c46.9,0,88.4,15.9,118.5,37.1V71.6c0-8-3.5-13.3-9.7-15.9l-46-14.1
			l7.1-41.6h118.5v523.4c0,12.4,0.9,14.1,12.4,15.9l39.8,5.3v41.6H2579.2z"/>
		<path id="path8233" class="st0" d="M2850.6,487.1c26.5,25.6,65.4,50.4,106.1,50.4c74.3,0,101.7-61,101.7-159.1
			c0-105.2-41.6-138.8-89.3-138.8c-49.5,0-96.4,30.1-118.5,47.7V487.1z M2735.7,750.6v-42.4l31.8-4.4c10.6-1.8,13.3-3.5,13.3-15.9
			V259c0-8.8-2.7-14.1-9.7-15.9l-44.2-15l7.1-41.6h102.6l7.1,45.1l2.7,0.9c42.4-31.8,85.8-53.9,138.8-53.9
			c86.6,0,145.9,55.7,145.9,192.7c0,116.7-39.8,223.7-161.8,223.7c-44.2,0-81.3-10.6-118.5-42.4V687c0,12.4,0.9,15,12.4,15.9
			l73.4,6.2v41.6L2735.7,750.6z"/>
		<path id="path8235" class="st0" d="M3414.7,407.6l-87.5,8c-67.2,6.2-85.8,25.6-85.8,66.3c0,41.6,17.7,59.2,53.9,59.2
			c46,0,94.6-37.1,118.5-60.1v-73.4L3414.7,407.6z M3428,586.2l-7.1-50.4l-2.7-0.9c-37.1,34.5-80.5,60.1-140.6,60.1
			c-97.3,0-109.6-67.2-109.6-106.1c0-77.8,47.7-114,141.5-122l105.2-8.8v-41.6c0-56.6-10.6-84.9-78.7-84.9
			c-47.7,0-81.3,1.8-82.2,60.1l-67.2-7.1c0-95.5,88.4-106.1,150.3-106.1c110.5,0,147.6,30.9,147.6,137.9v206
			c0,12.4,0.9,14.1,12.4,15.9l39.8,5.3v41.6H3428V586.2z"/>
		<path id="path8237" class="st0" d="M3580.9,750.6v-42.4l55.7-7.1c9.7-0.9,12.4-5.3,16.8-15.9l45.1-103.4l-139.7-330.7
			c-3.5-9.7-7.1-10.6-15.9-13.3l-31.8-8l8.8-42.4h160.9v42.4l-51.3,6.2L3733,496.9l107.9-260.8l-53-6.2l8.8-42.4h153.8v42.4
			l-26.5,3.5c-9.7,1.8-15.9,4.4-19.5,13.3l-188.3,454.4c0,0-8.8,21.2-13.3,30.1c-4.4,10.6-15.9,19.5-30.9,19.5L3580.9,750.6
			L3580.9,750.6z"/>
		<path id="path8239" class="st0" d="M535.2,557.9c-5.3,8-11.5,15.9-18.6,23.9c-15,16.8-32.7,32.7-52.2,46
			c-24.8,16.8-50.4,30.1-76.9,39.8c-23,8-43.3,12.4-61,13.3h-6.2c-8.8,0-15-0.9-18.6-3.5l-1.8-0.9l-1.8-1.8v-0.9
			c0-0.9,0-2.7,0.9-4.4c1.8-4.4,4.4-8,8-12.4c0.9-0.9,2.7-2.7,3.5-4.4c13.3-3.5,26.5-8,41.6-12.4c13.3,2.7,27.4,3.5,39.8,2.7
			c15.9-1.8,30.9-6.2,44.2-13.3c15.9-8.8,30.1-20.3,41.6-34.5c7.1-9.7,13.3-19.5,17.7-30.9c23.9-18.6,44.2-38,60.1-57.5l8-10.6
			C557.3,517.2,548.4,538.4,535.2,557.9 M444.1,597.6c5.3-2.7,9.7-6.2,15-8.8c-7.1,8.8-15.9,16.8-24.8,23
			c-12.4,8-25.6,14.1-38.9,16.8c-6.2,0.9-11.5,1.8-17.7,2.7C399.9,621.5,422.9,610,444.1,597.6 M605.9,375.7
			c0-25.6-6.2-50.4-18.6-73.4c-10.6-20.3-26.5-39.8-46-57.5c-4.4-23.9-16.8-46-35.4-66.3c-15-15.9-33.6-30.1-56.6-42.4
			c-17.7-9.7-37.1-17.7-57.5-23.9c-16.8-5.3-33.6-8-49.5-9.7c-15-1.8-27.4-0.9-38.9,0.9c-11.5,2.7-22.1,6.2-31.8,11.5l-1.8,0.9
			c-13.3-1.8-26.5-1.8-38.9-0.9h-3.5c-12.4,0.9-38,4.4-36.2,16.8c0,0,0,7.1,15.9,12.4l22.1-13.3c-1.8,0-3.5-0.9-5.3-0.9
			c7.1-0.9,14.1-1.8,19.5-1.8h4.4c-1.8,0.9-2.7,1.8-4.4,2.7l-7.1,4.4c-13.3,8-17.7,11.5-31.8,19.5c-8.8,5.3-16.8,10.6-25.6,15
			c-16.8,8.8-33.6,17.7-51.3,26.5c-14.1,6.2-28.3,13.3-46.9,21.2l-1.8,0.9c-4.4,1.8-8.8,3.5-12.4,5.3h-0.9
			c-4.4,1.8-9.7,4.4-12.4,9.7l-0.9,3.5v3.5c0,0.9,0.9,1.8,0.9,1.8l2.7,2.7l2.7,1.8h0.9c2.7,0.9,6.2,0.9,9.7,0.9h15.9
			c6.2,0,12.4-0.9,17.7-0.9c29.2-0.9,55.7-0.9,81.3,0c24.8,0.9,49.5,3.5,74.3,6.2l37.1,5.3c8-7.1,14.1-12.4,18.6-17.7
			c-25.6-5.3-51.3-8.8-76-11.5c-25.6-2.7-53-4.4-80.5-4.4H148c-13.3,0-27.4,0-40.7,0.9c13.3-6.2,24.8-12.4,36.2-17.7
			c16.8-8.8,33.6-18.6,50.4-29.2c12.4-8,25.6-16.8,40.7-27.4l2.7-1.8c17.7,3.5,38.9,7.1,60.1,11.5l45.1,10.6
			c-6.2-15-24.8-23.9-35.4-28.3c-15-2.7-30.9-6.2-49.5-8.8c4.4-3.5,8.8-6.2,13.3-8c15,1.8,27.4,4.4,38.9,8.8
			c8.8,3.5,15.9,7.1,22.1,11.5c0.9,0.9,2.7,1.8,3.5,2.7c10.6,8.8,16.8,20.3,16.8,31.8c0.9,9.7-1.8,20.3-7.1,30.9
			c-2.7,6.2-7.1,12.4-11.5,18.6c-0.9,1.8-8.8,13.3-26.5,28.3C290.3,274.8,270,289,245.2,304c-8.8,5.3-16.8,9.7-25.6,14.1
			c-10.6,5.3-21.2,10.6-30.1,14.1c-14.1,6.2-38,16.8-68.1,25.6c-15.9,4.4-30.9,8.8-46,11.5c-11.5,2.7-25.6,4.4-39.8,5.3
			c15.9-7.1,33.6-11.5,52.2-14.1c35.4-8,65.4-19.5,84.9-28.3c-18.6,0-37.1,0.9-56.6,2.7c-31.8,3.5-57.5,8-80.5,15.9
			c-13.3,4.4-30.9,11.5-35.4,23c-0.9,6.2,0,10.6,1.8,15c3.5,7.1,10.6,10.6,22.1,12.4c8.8,0.9,18.6,0.9,31.8-0.9
			c23.9-2.7,49.5-8,78.7-17.7c25.6-8,48.6-17.7,70.7-27.4c24.8,0.9,49.5,3.5,73.4,8c25.6,4.4,47.7,10.6,69,18.6
			c23.9,8.8,44.2,18.6,61,30.1c6.2-4.4,11.5-8.8,15.9-12.4c-0.9,0-0.9-0.9-1.8-0.9c-21.2-14.1-46-26.5-72.5-36.2
			c-22.1-8-46-14.1-72.5-19.5c-12.4-2.7-24.8-4.4-38-5.3c21.2-11.5,39.8-23,56.6-36.2c15-11.5,27.4-23,38.9-34.5
			c30.1,8,55.7,15.9,78.7,25.6c27.4,11.5,51.3,24.8,71.6,39.8l1.8,0.9c4.4-6.2,8-13.3,10.6-18.6c-18.6-13.3-38.9-24.8-61-35.4
			c-24.8-11.5-52.2-21.2-82.2-29.2c-0.9,0-1.8-0.9-3.5-0.9c13.3-18.6,21.2-36.2,23-53c0.9-5.3,0.9-9.7,0-15
			c25.6,8,50.4,17.7,73.4,28.3s42.4,22.1,59.2,35.4l0.9,0.9c-4.4-18.6-14.1-32.7-19.5-38.9c-10.6-6.2-22.1-11.5-34.5-17.7
			c-21.2-9.7-45.1-18.6-70.7-26.5c-5.3-1.8-11.5-3.5-16.8-4.4h-0.9c-8-14.1-20.3-22.1-30.1-27.4c-10.6-5.3-23-9.7-37.1-12.4
			c6.2-0.9,11.5-1.8,17.7-1.8h1.8c5.3,0,11.5,0,17.7,0.9c1.8,0,2.7,0,4.4,0.9c15,1.8,30.1,5.3,46.9,10.6c19.5,6.2,38,14.1,53.9,23.9
			c20.3,11.5,37.1,24.8,50.4,39.8c4.4,5.3,8.8,10.6,12.4,15.9c0.9,0.9,1.8,1.8,1.8,3.5c0,0,0,0.9,0.9,0.9
			c6.2,10.6,12.4,24.8,13.3,41.6c1.8,17.7-1.8,35.4-7.1,49.5c0,0.9-7.1,20.3-19.5,38c-12.4,18.6-29.2,37.1-49.5,54.8
			c-4.4,4.4-17.7,15.9-36.2,28.3c-17.7,12.4-36.2,23.9-55.7,34.5c-15,8.8-30.9,15.9-50.4,24.8c-8,3.5-19.5,8-32.7,12.4
			c-21.2,8-42.4,14.1-63.7,19.5c-30.9,7.1-58.4,11.5-84.9,13.3c-10.6,0.9-20.3,0.9-30.1,0c-14.1-0.9-29.2-2.7-38-10.6l-1.8-1.8v-1.8
			c1.8-5.3,6.2-8.8,10.6-12.4c6.2-4.4,13.3-8,22.1-11.5c20.3-8,43.3-13.3,69.8-15.9c24.8-1.8,50.4-0.9,74.3,2.7
			c12.4,1.8,24.8,5.3,37.1,8.8c8.8-2.7,17.7-6.2,23.9-8.8c-15-6.2-31.8-11.5-49.5-15.9c-24.8-5.3-51.3-7.1-77.8-6.2
			c-27.4,0.9-53,5.3-76,12.4c-18.6,6.2-38.9,14.1-51.3,30.1c-5.3,7.1-8,15-6.2,23.9c1.8,10.6,10.6,17.7,15,20.3
			c11.5,7.1,25.6,10.6,35.4,11.5c10.6,1.8,22.1,2.7,34.5,2.7h6.2c25.6-0.9,53-4.4,85.8-11.5c27.4-6.2,55.7-14.1,84.9-25.6
			c8-3.5,16.8-6.2,24.8-9.7c13.3,8.8,23,18.6,29.2,29.2c6.2,10.6,8.8,20.3,8.8,30.9c0,9.7-2.7,19.5-8,28.3c-0.9,2.7-2.7,4.4-4.4,7.1
			c6.2-1.8,12.4-4.4,18.6-7.1l2.7-5.3c4.4-11.5,6.2-23.9,4.4-35.4c-1.8-13.3-8-26.5-17.7-38c-4.4-6.2-10.6-11.5-16.8-16.8
			c28.3-13.3,53.9-27.4,76.9-42.4c11.5-8,23-15.9,33.6-23.9c17.7,16.8,30.9,35.4,37.1,55.7c3.5,10.6,5.3,21.2,5.3,32.7
			c7.1-6.2,13.3-11.5,17.7-15.9c-1.8-15.9-7.1-30.9-15.9-46c-7.1-13.3-17.7-25.6-30.1-38c23.9-20.3,43.3-41.6,57.5-63.7
			c0.9-0.9,1.8-2.7,2.7-3.5c17.7,17.7,30.9,37.1,39.8,56.6v0.9c1.8,3.5,2.7,8,4.4,11.5c6.2-14.1,8.8-26.5,9.7-34.5
			c-7.1-14.1-16.8-27.4-27.4-38.9c-4.4-5.3-9.7-9.7-15-15c9.7-20.3,15.9-39.8,17.7-58.4c4.4,5.3,8.8,10.6,12.4,15.9
			c13.3,20.3,22.1,41.6,23.9,61.9c0.9,8,0.9,15,0.9,23c0,0.9,0,8.8-2.7,21.2c0,1.8-0.9,4.4-1.8,6.2c-2.7,9.7-7.1,22.1-13.3,35.4
			c-0.9,0.9-0.9,2.7-1.8,3.5c-0.9,0.9-0.9,2.7-1.8,3.5c-11.5,21.2-27.4,42.4-47.7,61.9c-2.7,2.7-5.3,5.3-8.8,8
			c-7.1,7.1-17.7,15.9-27.4,23c-19.5,15-40.7,28.3-62.8,39.8c-16.8,8.8-34.5,17.7-53,24.8c-19.5,8-38,14.1-52.2,17.7
			c-26.5,7.1-52.2,12.4-76.9,15c-23,1.8-40.7,1.8-57.5-0.9c-10.6-1.8-18.6-4.4-25.6-8c-1.8-0.9-3.5-2.7-4.4-3.5
			c0-0.9-0.9-0.9-0.9-1.8v-1.8c3.5-8.8,15-13.3,26.5-16.8c10.6-3.5,23.9-5.3,38-5.3h1.8c13.3,0,26.5,1.8,40.7,5.3
			c13.3,2.7,26.5,7.1,38,11.5c0.9,0,0.9,0.9,1.8,0.9c5.3-0.9,11.5-2.7,19.5-5.3c-0.9,0-1.8-0.9-3.5-0.9c-5.3-1.8-10.6-4.4-15.9-6.2
			c-15-6.2-27.4-9.7-39.8-13.3c-15-3.5-30.1-6.2-44.2-6.2c-15-0.9-30.1,0.9-44.2,4.4c-15,3.5-25.6,9.7-33.6,16.8
			c-5.3,5.3-8,12.4-8,19.5s3.5,14.1,9.7,19.5c15.9,14.1,41.6,17.7,61.9,18.6c25.6,1.8,53-0.9,83.1-6.2c3.5-0.9,8-1.8,11.5-2.7
			c-2.7,4.4-5.3,8.8-6.2,14.1c-0.9,8,3.5,15.9,12.4,20.3c8,4.4,18.6,7.1,32.7,7.1h8c22.1-0.9,45.1-6.2,70.7-15.9
			c25.6-8.8,49.5-22.1,72.5-37.1c20.3-14.1,39.8-30.9,55.7-49.5c16.8-19.5,30.9-40.7,39.8-62.8c9.7-22.1,14.1-46.9,13.3-70.7
			c0-3.5,0-7.1-0.9-10.6C599.7,427.9,605.9,401.4,605.9,375.7"/>
	</g>
</g>
</svg>
